<?xml version="1.0" encoding="iso-8859-1"?>
<!-- Generator: Adobe Illustrator 16.0.0, SVG Export Plug-In . SVG Version: 6.00 Build 0)  -->
<!DOCTYPE svg PUBLIC "-//W3C//DTD SVG 1.1//EN" "http://www.w3.org/Graphics/SVG/1.1/DTD/svg11.dtd">
<svg version="1.1" id="Layer" xmlns="http://www.w3.org/2000/svg" xmlns:xlink="http://www.w3.org/1999/xlink" x="0px" y="0px"
	 width="24px" height="24px" viewBox="0 0 24 24" style="enable-background:new 0 0 24 24;" xml:space="preserve">
<path style="fill:#231F20;" d="M12,1c-5.101,0-9.25,4.148-9.25,9.246c0,6.783,8.141,12.289,8.487,12.521
	C11.467,22.921,11.733,23,12,23s0.533-0.079,0.763-0.232c0.346-0.232,8.487-5.738,8.487-12.521C21.25,5.148,17.101,1,12,1z
	 M12,21.625c0,0-7.875-5.25-7.875-11.379c0-4.347,3.526-7.871,7.875-7.871c4.35,0,7.875,3.524,7.875,7.871
	C19.875,16.375,12,21.625,12,21.625z M12,6.5c-1.516,0-2.75,1.23-2.75,2.749C9.25,10.769,10.484,12,12,12
	c1.516,0,2.75-1.231,2.75-2.751C14.75,7.73,13.516,6.5,12,6.5z M12,10.625c-0.76,0-1.375-0.617-1.375-1.376
	c0-0.758,0.614-1.374,1.375-1.374s1.375,0.616,1.375,1.374C13.375,10.008,12.76,10.625,12,10.625z"/>
</svg>
