<?xml version="1.0" encoding="iso-8859-1"?>
<!-- Generator: Adobe Illustrator 16.0.0, SVG Export Plug-In . SVG Version: 6.00 Build 0)  -->
<!DOCTYPE svg PUBLIC "-//W3C//DTD SVG 1.1//EN" "http://www.w3.org/Graphics/SVG/1.1/DTD/svg11.dtd">
<svg version="1.1" id="Layer" xmlns="http://www.w3.org/2000/svg" xmlns:xlink="http://www.w3.org/1999/xlink" x="0px" y="0px"
	 width="24px" height="24px" viewBox="0 0 24 24" style="enable-background:new 0 0 24 24;" xml:space="preserve">
<path style="fill:#231F20;" d="M19.486,3.75h-1.299V1.688C18.188,1.306,17.879,1,17.5,1s-0.688,0.306-0.688,0.688V3.75H7.188V1.688
	C7.188,1.306,6.879,1,6.5,1S5.812,1.306,5.812,1.688V3.75H4.514c-1.182,0-2.139,0.953-2.139,2.133v14.975
	C2.375,22.047,3.332,23,4.514,23h14.973c1.182,0,2.139-0.953,2.139-2.143V5.883C21.625,4.703,20.668,3.75,19.486,3.75z
	 M20.25,20.857c0,0.424-0.343,0.768-0.764,0.768H4.514c-0.42,0-0.764-0.344-0.764-0.768V10.625h16.5V20.857z M20.25,9.25H3.75V5.883
	c0-0.416,0.343-0.758,0.764-0.758h1.299v0.688C5.812,6.194,6.121,6.5,6.5,6.5s0.688-0.306,0.688-0.688V5.125h9.625v0.688
	c0,0.382,0.309,0.688,0.688,0.688s0.688-0.306,0.688-0.688V5.125h1.299c0.42,0,0.764,0.342,0.764,0.758V9.25z"/>
</svg>
